<svg xmlns="http://www.w3.org/2000/svg" width="24" height="24" viewBox="0 0 24 24"><defs><linearGradient id="a" x1="50%" x2="78.936%" y1="50%" y2="80.031%"><stop offset="0%" stop-color="#FFCD44"/><stop offset="100%" stop-color="#FFB403"/></linearGradient><radialGradient id="b" cx="82.715%" cy="14.258%" fx="82.715%" fy="14.258%"><stop offset="0%" stop-color="#777AB4"/><stop offset="100%" stop-color="#777AB4" stop-opacity="0"/></radialGradient><radialGradient id="c" cx="8.171%" cy="-6.535%" r="63.588%" fx="8.171%" fy="-6.535%"><stop offset="0%" stop-color="#777AB4"/><stop offset="100%" stop-color="#777AB4" stop-opacity="0"/></radialGradient></defs><g fill="none"><path fill="url(#a)" d="M7.508 3.367c1.684.711 2.867 2.378 2.867 4.321 0 2.589-2.099 4.688-4.688 4.688-1.943 0-3.61-1.182-4.321-2.867.56.236 1.175.367 1.821.367 2.589 0 4.688-2.099 4.688-4.688 0-.646-.131-1.261-.367-1.821z"/><path fill="#000" fill-opacity=".02" d="M8 18.5c-2.209 0-4-1.791-4-4s1.791-4 4-4c.417 0 .818.064 1.196.182.563-1.842 2.277-3.182 4.304-3.182 2.485 0 4.5 2.015 4.5 4.5 0 .235-.018.465-.053.69.328-.123.682-.19 1.053-.19 1.657 0 3 1.343 3 3s-1.343 3-3 3h-11zM8 18.75c-2.209 0-4-1.791-4-4s1.791-4 4-4c.417 0 .818.064 1.196.182.563-1.842 2.277-3.182 4.304-3.182 2.485 0 4.5 2.015 4.5 4.5 0 .235-.018.465-.053.69.328-.123.682-.19 1.053-.19 1.657 0 3 1.343 3 3s-1.343 3-3 3h-11zM8 19c-2.209 0-4-1.791-4-4s1.791-4 4-4c.417 0 .818.064 1.196.182.563-1.842 2.277-3.182 4.304-3.182 2.485 0 4.5 2.015 4.5 4.5 0 .235-.018.465-.053.69.328-.123.682-.19 1.053-.19 1.657 0 3 1.343 3 3s-1.343 3-3 3h-11z"/><path fill="#000" fill-opacity=".02" fill-rule="nonzero" d="M18.25 11.5c0-2.623-2.127-4.75-4.75-4.75-2.02 0-3.792 1.272-4.465 3.127-.335-.084-.682-.127-1.035-.127-2.347 0-4.25 1.903-4.25 4.25s1.903 4.25 4.25 4.25h11c1.795 0 3.25-1.455 3.25-3.25s-1.455-3.25-3.25-3.25c-.259 0-.515.03-.762.09l.012-.34z"/><path fill="#FFF" d="M8 18c-2.209 0-4-1.791-4-4s1.791-4 4-4c.417 0 .818.064 1.196.182.563-1.842 2.277-3.182 4.304-3.182 2.485 0 4.5 2.015 4.5 4.5 0 .235-.018.465-.053.69.328-.123.682-.19 1.053-.19 1.657 0 3 1.343 3 3s-1.343 3-3 3h-11z"/><circle cx="8" cy="14" r="4" fill="url(#b)" opacity=".24"/><circle cx="19" cy="15" r="3" fill="url(#c)" opacity=".24"/><circle cx="13.5" cy="11.5" r="4.5" fill="#FFF"/></g></svg>